<?xml version="1.0" standalone="no"?>
<!DOCTYPE svg PUBLIC "-//W3C//DTD SVG 20010904//EN"
 "http://www.w3.org/TR/2001/REC-SVG-20010904/DTD/svg10.dtd">
<svg version="1.0" xmlns="http://www.w3.org/2000/svg"
 width="1024.000000pt" height="1024.000000pt" viewBox="0 0 1024.000000 1024.000000"
 preserveAspectRatio="xMidYMid meet">

<g transform="translate(0.000000,1024.000000) scale(0.100000,-0.100000)"
fill="#efefef" stroke="none">
<path d="M4820 10070 c-173 -11 -430 -43 -606 -75 -2009 -369 -3600 -1961
-3969 -3969 -60 -329 -79 -544 -79 -906 0 -295 8 -415 40 -660 203 -1529 1112
-2877 2459 -3647 1518 -868 3402 -867 4916 3 1266 727 2153 1974 2413 3394 61
333 80 547 80 910 0 362 -19 577 -79 906 -331 1800 -1650 3285 -3403 3830
-326 101 -633 162 -996 199 -177 18 -598 26 -776 15z m735 -975 c812 -95 1526
-401 2150 -924 116 -96 370 -350 466 -466 525 -627 830 -1340 925 -2160 21
-183 24 -633 5 -805 -92 -846 -396 -1567 -930 -2205 -96 -116 -350 -370 -466
-466 -626 -524 -1327 -825 -2155 -925 -197 -24 -656 -24 -855 0 -826 98 -1534
401 -2160 925 -116 96 -370 350 -466 466 -525 628 -830 1339 -925 2160 -24
207 -24 643 0 850 95 821 400 1532 925 2160 96 116 350 370 466 466 398 333
826 575 1300 735 349 117 655 176 1080 208 103 8 515 -4 640 -19z"/>
<path d="M3100 8204 c-109 -23 -222 -86 -310 -173 -136 -134 -195 -276 -193
-466 0 -93 4 -123 29 -195 67 -201 227 -358 427 -419 67 -20 79 -20 2055 -23
2224 -2 2045 -8 2202 70 89 44 219 166 267 252 60 106 78 181 78 320 -1 109
-4 134 -27 198 -87 241 -280 396 -541 434 -129 18 -3899 20 -3987 2z"/>
<path d="M5040 6218 c-28 -7 -243 -217 -1033 -1006 -603 -602 -1006 -1012
-1019 -1036 -16 -32 -19 -53 -16 -112 3 -62 8 -79 34 -116 40 -55 82 -84 145
-97 33 -7 274 -11 699 -11 l650 0 2 -1158 3 -1159 30 -49 c19 -30 49 -60 79
-79 l49 -30 457 0 457 0 49 30 c30 19 60 49 79 79 l30 49 3 1158 2 1158 678 3
677 3 48 24 c81 40 127 117 127 214 0 53 -5 70 -29 108 -16 24 -474 488 -1017
1031 -855 853 -994 988 -1029 997 -48 13 -107 13 -155 -1z"/>
</g>
</svg>
