<svg xmlns="http://www.w3.org/2000/svg" version="1.2" viewBox="0 0 1080 1080" width="1080" height="1080"><path fill="#fff" d="m322 198l23-12c0 0 13.3 30.3-23 53c-50.5 31.5-77-18-77-18c0 0-35.3-42.2 21-77c47.5-23.2 66 10 66 10l-25 12c0 0-10.3-19-33-4c-29.5 15.5-5 44-5 44c0 0 14.8 37 45 17c16-11.2 8-25 8-25zm58-100l28-8l16 68c0 0 2.8 17.8 25 16c23.5-4.5 18-28 18-28l-10-66l28-3l7 69c0 0 4.5 36.3-38 44c-41.8 9-51-18-51-18zm168-24l29 1l11 76l30-72l25 4l5 78l35-69l28 8c0 0-38.8 57.2-57 94c-12.5-2.1-23-5-23-5c0 0-3.8-51.5-7-72c-9.2 17.7-29 65-29 65c0 0-24-0.6-24-0.7c-4-35.4-23-107.3-23-107.3zm277 119c0 0 10.3-18.3-10-28c-27.3-19.9-44 13-44 13c0 0-20.7 34.4 0 47c26 16.7 34-2 34-2l21 16c0 0-23.3 29.4-65 0c-41-30.3-12-75-12-75c0 0 19.7-47.6 77-14c44.7 32.1 21 59 21 59z"/><path fill="#009241" d="m532 1011c-247.1 0-451.2-181-487.3-417.9c-0.4-22.4-0.7-43-0.7-58.1c6.5-157.4 49.5-212.4 113-295c76.5 96.1 127 162 127 162l107-164h285l102 165c0 0 87-111.9 128-165c65 60.6 100 141.6 112.5 261.1c1.1 28.9 2.1 56.6 2.8 79.8c-30 243.8-237.3 432.1-489.3 432.1zm466-497.5c-4-157.9-91-242.9-90.7-244.4c-72.3 100.1-99.8 135-126.3 170.1c-48-77-46-72-115.5-179.1c-258.5 0-232.5-1.7-262.5-1.7c-37 60.2-83.5 133.2-116.5 184.2c-42.5-53.5-97-135.5-129-169.5c-1-1.1-92.5 105-94.5 240.4c-3.8 258.5 209 467.5 467.5 467.5c258.5 0 474-209.1 467.5-467.5z"/><path fill="#009241" d="m532.5 962c-243 0-439.5-196.5-439.5-439.5c0-78.4 20.4-151.9 56.3-215.6l119.7 165.1l-111 184l89 135l576-6l88-131l-115-180l117.8-170.4c37 64.4 58.2 139.2 58.2 218.9c0 243-196.5 439.5-439.5 439.5z"/><path fill="#27176f" d="m539.5 730c-97.5 0-178.8-66.1-198.1-154.4c48.5-54.3 81.6-69.9 110.9-71.2c36-1.7 75.9 51.8 128.7 51.6c66-0.3 81-59.6 111-59.3c20.6 0.2 39.8 18.2 49.8 29.5q0.2 4.4 0.2 8.8c0 107.8-90.5 195-202.5 195z"/><path fill="#0093dd" d="m337 535c0-107.8 90.5-195 202.5-195c90 0 166.1 56.3 192.6 134.4q-0.3-0.1-0.3-0.1c0 0 0.5 1.2 1.3 3.1q2.9 9.2 4.9 18.7c-0.1 3.6-1.6 5.7-6 3.9c-27.9-11.1-22.3-24-46-23c-19 0.8-44.5 56.3-76 60c-29.8 3.5-27.8 3-50.5 0c-0.2 0-31.5-9.7-1.5-9c46 1.1 95-30.9 95-86c0-56.9-56.2-83.1-84.3-83.7c-46.3-1-89 29.8-90.7 79.7c-0.6 17.4-2 29.8 15 53.5c11.7 7.7 15.9 21.3-0.7 11c-8.9-5.4-11.6-14.1-38.3-16.5c-26.3-2.4-99.5 50.7-116.5 63.3q-0.5-7.1-0.5-14.3z"/><path fill="#fff500" d="m564.5 519.6c-42.9 0-77.5-34.7-77.5-77.5c0-42.9 34.6-77.5 77.5-77.5c42.9 0 77.5 34.6 77.5 77.5c0 42.8-34.6 77.5-77.5 77.5z"/><path fill="#da251e" d="m805 757l-221.6-0.4c103.4-18.4 181.6-108.5 181.6-217.1q0-1.8 0-3.5q0-1.7 0-3.5c0-29.9-5.9-58.4-16.7-84.3l126.7 206.8zm-386-477l227 1l66.4 108.4c-40.5-47.4-100.6-77.4-167.9-77.4c-23.6 0-46.4 3.7-67.7 10.6c-47.5 8.6-89.6 32.4-121.3 66.1zm-147 476l-72-101l106.1-181.5c-6.6 20.8-10.1 43-10.1 66c0 108.3 77.7 198.1 180.5 216.9z"/></svg>
