<?xml version="1.0" standalone="no"?>
<!DOCTYPE svg PUBLIC "-//W3C//DTD SVG 20010904//EN"
 "http://www.w3.org/TR/2001/REC-SVG-20010904/DTD/svg10.dtd">
<svg version="1.0" xmlns="http://www.w3.org/2000/svg"
 width="850.000000pt" height="1235.000000pt" viewBox="0 0 850.000000 1235.000000"
 preserveAspectRatio="xMidYMid meet">

<g transform="translate(0.000000,1235.000000) scale(0.100000,-0.100000)"
fill="#000000" stroke="none">
<path fill="#161625" d="M555 12343 c-228 -51 -404 -216 -459 -430 -19 -71 -21 -199 -5 -275
18 -89 74 -193 143 -266 35 -37 403 -481 817 -987 415 -506 887 -1082 1050
-1280 162 -198 420 -513 574 -700 153 -187 318 -387 365 -445 47 -58 212 -258
365 -445 154 -187 340 -414 414 -505 75 -91 239 -291 365 -445 127 -154 309
-377 406 -495 97 -118 261 -318 365 -445 104 -126 250 -304 324 -395 74 -91
185 -226 246 -300 62 -74 118 -147 126 -162 21 -39 779 -967 799 -978 15 -8
134 -146 220 -256 14 -17 93 -114 175 -215 83 -101 168 -207 188 -236 93 -128
228 -213 384 -240 191 -33 377 31 521 178 92 94 162 267 162 404 0 74 -25 175
-59 244 -39 80 -50 94 -119 166 -56 57 -6639 8080 -6777 8259 -36 47 -89 104
-118 127 -62 50 -171 102 -245 118 -51 11 -187 13 -227 4z"/>
<path fill="#161625" d="M3900 12334 c-426 -33 -844 -129 -1228 -280 -136 -54 -462 -212 -575
-279 -71 -42 -77 -48 -64 -63 8 -9 172 -211 366 -449 193 -238 356 -435 361
-438 5 -3 44 12 87 33 419 210 841 316 1308 329 238 6 403 -4 600 -38 673
-113 1309 -461 1766 -964 285 -314 507 -688 644 -1085 269 -780 203 -1669
-176 -2399 -104 -200 -215 -368 -370 -562 l-21 -27 108 -133 c60 -74 152 -186
204 -250 52 -64 169 -206 259 -317 90 -111 167 -202 171 -202 8 0 187 211 272
320 388 503 679 1155 797 1785 62 328 87 777 62 1105 -53 699 -260 1328 -641
1950 -260 424 -695 883 -1137 1198 -307 220 -693 418 -1063 548 -539 189
-1143 265 -1730 218z"/>
<path fill="#161625" d="M4025 10409 c-202 -20 -443 -78 -625 -151 -122 -49 -130 -52 -130
-58 0 -6 461 -575 490 -604 18 -18 20 -18 97 2 105 28 193 41 348 51 141 10
192 24 259 70 59 41 93 83 130 161 27 58 31 75 31 155 0 80 -4 97 -32 157 -52
110 -139 183 -258 214 -55 15 -171 16 -310 3z"/>
<path fill="#161625" d="M561 10217 c-59 -107 -194 -383 -234 -482 -357 -873 -421 -1801 -187
-2700 161 -615 472 -1209 887 -1690 528 -612 1026 -1457 1249 -2120 l43 -130
573 0 573 0 3 50 c11 166 -133 601 -367 1107 -292 635 -677 1238 -1126 1763
-164 192 -216 259 -312 407 -285 435 -449 916 -493 1443 -35 425 25 894 165
1279 25 68 45 129 45 135 0 10 -771 965 -788 975 -4 2 -18 -14 -31 -37z"/>
<path fill="#161625" d="M1961 8478 c-24 -157 -35 -364 -23 -428 25 -136 100 -237 220 -293
60 -29 76 -32 157 -31 98 0 174 23 229 69 l30 24 -40 50 c-122 156 -550 680
-555 680 -4 1 -12 -32 -18 -71z"/>
<path fill="#161625" d="M5355 4183 c-131 -291 -269 -664 -306 -828 -12 -49 -21 -128 -22
-175 l-2 -85 566 -3 c446 -2 568 1 576 10 5 7 24 57 42 111 l33 98 -116 142
c-433 536 -693 851 -702 854 -6 2 -37 -54 -69 -124z"/>
<path fill="#161625" d="M2322 1753 c3 -558 3 -569 25 -614 35 -76 658 -1003 693 -1033 43
-36 103 -66 165 -82 73 -20 2006 -20 2080 0 61 16 108 39 157 78 40 32 652
942 697 1038 l26 55 3 563 3 562 -1926 0 -1926 0 3 -567z"/>
</g>
</svg>
