<svg version="1.2" baseProfile="tiny-ps" xmlns="http://www.w3.org/2000/svg" viewBox="0 0 448 512" width="448" height="512">
	<title>sticky-svg</title>
	<style>
		tspan { white-space:pre }
		.s0 { fill: #ffffff } 
	</style>
	<path id="Layer" fill-rule="evenodd" class="s0" d="m448 348.11c0 3.14-0.31 6.28-0.92 9.36c-0.61 3.08-1.53 6.1-2.73 9c-1.2 2.9-2.69 5.68-4.44 8.3c-1.75 2.61-3.75 5.05-5.97 7.27l-83.88 83.88c-2.22 2.22-4.66 4.22-7.27 5.97c-2.61 1.75-5.39 3.23-8.3 4.44c-2.9 1.2-5.92 2.12-9 2.73c-2.75 0.55-7.34 0.86-8.3 0.92c-0.25 0-0.6 0-1.06 0h-268.12c-26.51 0-48-21.49-48-48v-351.99c0-26.51 21.49-48 48-48h352c26.51 0 48 21.49 48 48l0 268.11zm-131 131.89c0 0 0.06 0 0.18-0.01c1.46 0-0.18 0.01-0.18 0.01zm-269-400v351.99h224l0-67.75l0 0c0.01-6.26 0.02-17.89 0-36.25c-0.02-12.9 10.6-23.27 21.88-23.95l0.01 0.04c0.44-0.04 0.88-0.07 1.32-0.08c1.71 0 3.31-0.01 4.79-0.01h100.01v-223.99h-352zm175.45 258.99l-61.45 32.01c0 0-2.9 0-8 0c-7 0-10-11-10-11v-7l10.98-64.01l-46.98-45.99c0 0-5-4.05-5-8c0-2.95-0.01-2.24 0-5c0.02-7.95 9-11 9-11l67-10h2l29-59c0 0 5-8.98 11-9c1.67 0-0.66 0 5 0c5.91 0 11 9 11 9l29 59h3l67.02 10c0 0 7.98 1.95 7.98 11c0 2.35 0 1.88 0 5c0 2.97-2 5-2 5l-44.9 44c-1.59 0-3.28 0-5.1 0c-23.75 0.01-40 26.07-40 38c0 13.05 0 23.82 0 31.83l-28.55-14.85zm172.66 13h-76.12v76.12l76.12-76.12z" />
</svg>