<svg xmlns="http://www.w3.org/2000/svg" version="1.2" viewBox="0 0 64 64" width="64" height="64">
	<defs>
		<clipPath clipPathUnits="userSpaceOnUse" id="cp1">
			<path d="m0 14.99c0-8.28 6.71-14.99 14.99-14.99h34.01c8.29 0 15 6.71 15 14.99v34.01c0 8.29-6.71 15-14.99 15h-34.01c-8.29 0-15-6.71-15-14.99z"/>
		</clipPath>
		<clipPath clipPathUnits="userSpaceOnUse" id="cp2">
			<path d="m0 14.99c0-8.28 6.71-14.99 14.99-14.99h34.01c8.29 0 15 6.71 15 14.99v34.01c0 8.29-6.71 15-14.99 15h-34.01c-8.29 0-15-6.71-15-14.99z"/>
		</clipPath>
		<clipPath clipPathUnits="userSpaceOnUse" id="cp3">
			<path d="m0 14.99c0-8.28 6.71-14.99 14.99-14.99h34.01c8.29 0 15 6.71 15 14.99v34.01c0 8.29-6.71 15-14.99 15h-34.01c-8.29 0-15-6.71-15-14.99z"/>
		</clipPath>
		<clipPath clipPathUnits="userSpaceOnUse" id="cp4">
			<path d="m0 14.99c0-8.28 6.71-14.99 14.99-14.99h34.01c8.29 0 15 6.71 15 14.99v34.01c0 8.29-6.71 15-14.99 15h-34.01c-8.29 0-15-6.71-15-14.99z"/>
		</clipPath>
	</defs>
	<g id="Layer">
		<g id="Layer">
			<g id="Clip-Path" clip-path="url(#cp1)">
				<path id="Layer" fill="#2ecc71" d="m30 0v39h-30v-39z"/>
			</g>
			<g id="Clip-Path" clip-path="url(#cp2)">
				<path id="Layer" fill="#e74c3c" d="m64 0v21h-30v-21z"/>
			</g>
			<g id="Clip-Path" clip-path="url(#cp3)">
				<path id="Layer" fill="#f39c12" d="m30 43v21h-30v-21z"/>
			</g>
			<g id="Clip-Path" clip-path="url(#cp4)">
				<path id="Layer" fill="#3498db" d="m64 25.5v39h-30v-39z"/>
			</g>
		</g>
	</g>
</svg>
