<svg version="1.2" xmlns="http://www.w3.org/2000/svg" viewBox="0 0 122 101" width="122" height="101">
	<title>drizzle1-svg</title>
	<style>
		.s0 { fill: #ffffff } 
	</style>
	<path id="Hình dạng 2 copy" class="s0" d="m59.4 42.4c1.6-2.9 5.3-1.5 4.6 1.6-1.8 4.3-6 8-13 8-9.3 0-10.7-9-18-9-4.5 0-6.9 3.2-8.4 5.4-1 1.6-5.6 0.1-3.6-3.4 1.4-2.4 6.4-7 11-7 11.7 0 13.4 9.9 19 10 3.3 0 6.1-2.7 8.4-5.6zm28.5-6c1.6-2.9 5.3-1.5 4.6 1.6-1.8 4.3-6 8-13 8-9.3 0-10.7-9-18-9-4.5 0-6.9 3.2-8.4 5.4-1 1.6-5.6 0.1-3.6-3.4 1.4-2.4 6.3-7 11-7 11.7 0 13.3 9.9 19 10 3.3 0 6.1-2.7 8.4-5.6zm-20 22c1.6-2.9 5.3-1.5 4.6 1.6-1.8 4.3-6 8-13 8-9.3 0-10.7-9-18-9-4.5 0-6.9 3.2-8.4 5.4-1 1.6-5.6 0.1-3.6-3.4 1.4-2.4 6.3-7 11-7 11.7 0 13.3 9.9 19 10 3.3 0 6.1-2.7 8.4-5.6zm29-6c1.6-2.9 5.3-1.5 4.6 1.6-1.8 4.3-6 8-13 8-9.3 0-10.7-9-18-9-4.5 0-6.9 3.2-8.4 5.4-1 1.6-5.6 0.1-3.6-3.4 1.4-2.4 6.3-7 11-7 11.7 0 13.3 9.9 19 10 3.3 0 6.1-2.7 8.4-5.6z"/>
</svg>