<svg version="1.2" xmlns="http://www.w3.org/2000/svg" viewBox="0 0 122 101" width="122" height="101">
	<title>Dự án mới</title>
	<style>
		.s0 { fill: #ffd450;stroke: #ffd450;stroke-linecap: round;stroke-linejoin: round;stroke-width: 1.3 } 
	</style>
	<path id="Hình dạng 1" fill-rule="evenodd" class="s0" d="m60.5 75.5c-13.8 0-25-11.2-25-25 0-13.8 11.2-25 25-25 13.8 0 25 11.2 25 25 0 13.8-11.2 25-25 25zm21.5-25c0-11.9-9.6-21.5-21.5-21.5-11.9 0-21.5 9.6-21.5 21.5 0 11.9 9.6 21.5 21.5 21.5 11.9 0 21.5-9.6 21.5-21.5zm-41.5-20.9l-0.7 0.7-6.8-6.9 0.7-0.7zm20.2-7.6h-1v-13h1zm-21.1 47.8l0.7 0.7-6.9 6.8-0.7-0.7zm-7.6-20.2v1h-13v-1zm48 20.9l0.7-0.7 6.9 6.9-0.7 0.7zm-20.2 7.6h1v13h-1zm20.6-47.8l-0.7-0.7 6.8-6.8 0.7 0.7zm7.6 20.2v-1h13v1z"/>
</svg>