<svg version="1.2" xmlns="http://www.w3.org/2000/svg" viewBox="0 0 122 101" width="122" height="101">
	<title>cloud1-svg</title>
	<style>
		.s0 { fill: #ffd450;stroke: #ffd450;stroke-linecap: round;stroke-linejoin: round } 
		.s1 { fill: #ffffff;stroke: #ffd450;stroke-linecap: round;stroke-linejoin: round;stroke-width: 0 } 
	</style>
	<path id="Hình dạng 1" fill-rule="evenodd" class="s0" d="m56.5 73c-4.2 0-8.2-1.1-11.6-3.2 0.4-1.5 0.1-3-0.4-4.1 3.3 2.6 7.5 4.1 12 4.1 8.7 0 16.1-5.6 18.7-13.5 0.7 0.5 1.7 1 2.9 1.5-3.2 8.9-11.6 15.2-21.6 15.2zm-22.8-22.8c0-12.7 10.2-22.9 22.8-22.9 9.7 0 18 6 21.3 14.5-1.1 0.5-2 1.2-2.6 2.2-2.6-7.8-10-13.5-18.7-13.5-10.9 0-19.7 8.8-19.7 19.6 0 4.3 1.4 8.3 3.7 11.5-1.3-0.8-3-1.7-4.8-2-1.3-2.9-2-6.1-2-9.4zm3.2-20.6l-0.6 0.7-6.3-6.3 0.7-0.7zm20-7.7h-0.9v-11.8h0.9zm-28.9 27.6v0.9h-11.9v-0.9zm47.9 20.4l0.6-0.6 6.3 6.3-0.7 0.6zm-19.8 8.6h0.9v11.9h-0.9zm20.6-48.6l-0.7-0.6 6.3-6.3 0.6 0.6z"/>
	<path id="Hình dạng 2 copy" fill-rule="evenodd" class="s1" d="m25.7 64c10.6-14 19.5 1.1 19.5 1.1 0 0 0.9 3.6 0.6 5 10.3 4.1 2.7 10.6 2.7 10.6 0 0-1 1-4.6 0.6-18.5 8.5-32.7-2.8-32.7-2.8 0 0-5.2-5.5 4.5-7.8 1.8-3.8 1.8-6.6 10-6.7zm-8.5 8.9c-5.1 0.7-7.4 3.4-0.7 6 0.3 0.1 16 6.9 27.1-0.6 2.5 1.3 3.6-0.2 3.6-0.2 0 0 5.6-4.1-3.5-6.1 0.7-2.5-0.3-5.2-0.3-5.2 0 0-7.6-14.4-16.7 0-1.4-0.8-8.4-0.9-9.5 6.1zm66.7-33.9c11.4-15.1 21.1 1.2 21.1 1.2 0 0 1 3.9 0.7 5.4 11 4.4 2.9 11.4 2.9 11.4 0 0-1.2 1-5.1 0.6-19.9 9.2-35.2-3-35.2-3 0 0-5.6-5.9 4.8-8.5 1.9-4 2-7 10.8-7.1zm-9.2 9.6c-5.4 0.7-7.9 3.6-0.7 6.4 0.3 0.1 17.3 7.5 29.3-0.6 2.6 1.4 3.8-0.2 3.8-0.2 0 0 6.1-4.4-3.7-6.6 0.7-2.7-0.4-5.6-0.4-5.6 0 0-8.2-15.6-18 0-1.5-0.8-9-1-10.3 6.6z"/>
</svg>