<svg version="1.2" xmlns="http://www.w3.org/2000/svg" viewBox="0 0 122 101" width="122" height="101">
	<title>cloud2-svg</title>
	<style>
		.s0 { fill: #ffd450;stroke: #ffd450;stroke-linecap: round;stroke-linejoin: round;stroke-width: 1.3 } 
		.s1 { fill: #ffffff;stroke: #ffd450;stroke-linecap: round;stroke-linejoin: round;stroke-width: 0 } 
	</style>
	<path id="Hình dạng 1" fill-rule="evenodd" class="s0" d="m19.7 38.4c0-11.5 9.3-20.7 20.7-20.7 10.5 0 19.1 7.7 20.5 17.7q-1.4 1.2-2.7 2.6c-0.2-9.6-8.1-17.4-17.8-17.4-9.8 0-17.8 8-17.8 17.8 0 6.2 3.1 11.6 7.8 14.8q-0.6 1.2-1 2.8c-5.8-3.7-9.7-10.2-9.7-17.6zm5.3-16.1l-0.5 0.6-5.7-5.8 0.6-0.5zm15-17.1h0.8v10.8h-0.8zm-15.6 48.1l0.6 0.6-5.8 5.6-0.5-0.6zm-17.3-15.7h10.8v0.9h-10.8zm49.3-14.9l-0.6-0.5 5.7-5.7 0.6 0.6z"/>
	<path id="Hình dạng 2" fill-rule="evenodd" class="s1" d="m26.8 60.9c2.2-23.6 26.3-17 26.3-17 0 0 6.4-16.6 24.9-16.9 27.4 0.7 27 27 27 27 0 0 0.2 5.5-1 8 9.2 0.4 13.6 20.1 0 23-1.7 13-71.8 16-79.7 0.9-13-1-12.3-11.9-12.3-11.9 0 0-2.1-12.6 14.8-13.1zm-0.8 22.1c3.3 13.8 69.2 13.3 76 0 5.1-1.2 14.8-12.1-1-20 9.6-32.5-33.9-45.6-47-15-5.8-3-22.9-5.9-25 16-23.2 0.1-12.8 22.1-3 19z"/>
</svg>