<svg version="1.2" xmlns="http://www.w3.org/2000/svg" viewBox="0 0 122 101" width="122" height="101">
	<title>drizzle1-svg</title>
	<style>
		.s0 { fill: #ffffff } 
		.s1 { fill: #ffffff;stroke: #ffd450;stroke-linecap: round;stroke-linejoin: round;stroke-width: 0 } 
	</style>
	<path id="Hình dạng 3" fill-rule="evenodd" class="s0" d="m69 86c0.2 7.8-5 8.9-5 9-2.7 0.6-5 0-5 0 0 0-3.5-1.3-4-5 0 0.1-0.6-2.9 0-5 0.4-2.2 6.3-6.3 8-9 2.2-3.2 4 0 4 0 0 0 1.8 4.1 2 10zm-10.7-1.3c-2 2.7-0.3 6.3-0.3 6.3 0 0 0.8 2.6 3.9 2.1 6.8-2.1 4.7-9.4 4.7-9.5-0.4-2.1-1.6-6.1-1.6-6.1 0 0-0.8 1.6-6.7 7.2z"/>
	<path id="Hình dạng 3 copy 2" fill-rule="evenodd" class="s0" d="m50 86c0.2 7.8-5 8.9-5 9-2.7 0.6-5 0-5 0 0 0-3.5-1.3-4-5 0 0.1-0.6-2.9 0-5 0.4-2.2 6.3-6.3 8-9 2.2-3.2 4 0 4 0 0 0 1.8 4.1 2 10zm-10.7-1.3c-2 2.7-0.3 6.3-0.3 6.3 0 0 0.8 2.6 3.9 2.1 6.8-2.1 4.7-9.4 4.7-9.5-0.4-2.1-1.6-6.1-1.6-6.1 0 0-0.8 1.6-6.7 7.2z"/>
	<path id="Hình dạng 3 copy" fill-rule="evenodd" class="s0" d="m89 86c0.2 7.8-5 8.9-5 9-2.7 0.6-5 0-5 0 0 0-3.5-1.3-4-5 0 0.1-0.6-2.9 0-5 0.4-2.2 6.3-6.3 8-9 2.2-3.2 4 0 4 0 0 0 1.8 4.1 2 10zm-10.7-1.3c-2 2.7-0.3 6.3-0.3 6.3 0 0 0.8 2.6 3.9 2.1 6.8-2.1 4.7-9.4 4.7-9.5-0.4-2.1-1.6-6.1-1.6-6.1 0 0-0.8 1.6-6.7 7.2z"/>
	<path id="Hình dạng 2" fill-rule="evenodd" class="s1" d="m25.8 38.9c2.2-23.6 26.3-17 26.3-17 0 0 6.4-16.6 24.9-16.9 27.4 0.7 27 27 27 27 0 0 0.2 5.5-1 8 9.2 0.4 13.6 20.1 0 23-1.7 13-71.8 16-79.7 0.9-13-1-12.3-11.9-12.3-11.9 0 0-2.1-12.6 14.8-13.1zm-0.8 22.1c3.3 13.8 69.2 13.3 76 0 5.1-1.2 14.8-12.1-1-20 9.6-32.5-33.9-45.6-47-15-5.8-3-22.9-5.9-25 16-23.2 0.1-12.8 22.1-3 19z"/>
</svg>