<svg version="1.2" xmlns="http://www.w3.org/2000/svg" viewBox="0 0 122 101" width="122" height="101">
	<title>drizzle1-svg</title>
	<style>
		.s0 { fill: #ffffff } 
		.s1 { fill: #ffffff;stroke: #ffd450;stroke-linecap: round;stroke-linejoin: round;stroke-width: 0 } 
	</style>
	<path id="Layer" class="s0" d="m60 72.1c-0.2 0-0.4 0.2-0.4 0.4-0.1 0.1-0.1 0.8-0.1 1.8v1.7l-1-0.8c-0.7-0.5-1.1-0.8-1.2-0.8-0.6-0.1-1.1 0.4-1 0.9 0 0.1 0.1 0.3 0.1 0.3 0 0.1 0.8 0.7 1.6 1.3l1.5 1.1v2.8c0 1.5 0 2.7 0 2.7-0.3-0.2-4.6-2.7-4.7-2.7 0 0-0.1-0.7-0.2-1.8-0.2-1-0.3-1.9-0.3-2-0.1-0.2-0.3-0.5-0.6-0.5q-0.4-0.1-0.7 0.2c-0.3 0.3-0.3 0.4-0.1 1.7 0 0.7 0.1 1.3 0.1 1.3 0 0-0.7-0.3-1.4-0.8-0.8-0.4-1.5-0.8-1.6-0.8q-0.4-0.1-0.8 0.2c-0.3 0.3-0.3 0.7 0 1.1 0 0 0.7 0.5 1.5 0.9 0.8 0.5 1.5 0.9 1.5 0.9-0.1 0-0.6 0.2-1.2 0.5-0.8 0.3-1.2 0.5-1.3 0.6-0.4 0.5-0.1 1.4 0.6 1.4 0.1 0 0.9-0.4 1.9-0.8l1.8-0.7 2.3 1.3c1.3 0.8 2.4 1.4 2.4 1.4 0 0-1.1 0.7-2.4 1.4l-2.3 1.4-1.8-0.8c-1-0.4-1.8-0.7-1.9-0.7-0.7 0-1.1 0.8-0.6 1.3 0.1 0.2 0.4 0.3 1.3 0.7 0.6 0.2 1.1 0.4 1.1 0.5 0.1 0-0.6 0.4-1.4 0.8-0.8 0.5-1.5 0.9-1.5 1-0.5 0.5 0 1.4 0.8 1.3 0.1 0 0.8-0.4 1.6-0.9 0.7-0.4 1.4-0.8 1.4-0.8 0 0.1-0.1 0.6-0.1 1.3-0.2 1.4-0.2 1.5 0.1 1.8 0.4 0.3 1.2 0.1 1.3-0.4 0-0.1 0.1-1 0.3-1.9q0.2-1.8 0.2-1.9c0.1 0 4.4-2.5 4.7-2.6 0-0.1 0 1.2 0 2.7v2.7l-1.5 1.1c-0.8 0.7-1.6 1.2-1.6 1.3 0 0.1-0.1 0.2-0.1 0.3-0.1 0.6 0.4 1 1 0.9 0.1 0 0.5-0.3 1.2-0.8l1-0.8v1.8c0 1.7 0 1.8 0.1 1.9 0.2 0.3 0.4 0.3 0.7 0.3 0.3 0 0.5 0 0.7-0.3 0.1-0.1 0.1-0.2 0.1-1.9v-1.8l1.1 0.8c0.6 0.5 1.1 0.8 1.2 0.8 0.5 0.1 1-0.3 0.9-0.9 0-0.1 0-0.2-0.1-0.3 0-0.1-0.7-0.6-1.6-1.3l-1.5-1.1v-2.7c0-1.5 0-2.8 0.1-2.7 0.3 0.1 4.6 2.6 4.6 2.6 0.1 0.1 0.1 0.7 0.3 1.9 0.1 0.9 0.2 1.8 0.2 1.9 0.2 0.5 0.9 0.7 1.3 0.4 0.3-0.3 0.3-0.4 0.2-1.8-0.1-0.6-0.2-1.2-0.1-1.2q0-0.1 1.4 0.7c0.8 0.5 1.5 0.9 1.6 0.9q0.4 0.1 0.7-0.3c0.3-0.2 0.3-0.7 0.1-1-0.1-0.1-0.8-0.5-1.6-1-0.8-0.4-1.4-0.8-1.4-0.8 0-0.1 0.5-0.3 1.1-0.5 0.9-0.4 1.2-0.5 1.3-0.7 0.5-0.5 0.1-1.3-0.6-1.3-0.1 0-0.9 0.3-1.9 0.7l-1.7 0.8-2.4-1.4c-1.3-0.7-2.3-1.4-2.3-1.4 0 0 1-0.6 2.3-1.4l2.4-1.3 1.7 0.7c1 0.4 1.8 0.8 1.9 0.8 0.7 0 1.1-0.9 0.6-1.4-0.1-0.1-0.4-0.3-1.3-0.6-0.6-0.3-1.1-0.5-1.1-0.5 0 0 0.6-0.4 1.4-0.9 0.8-0.4 1.5-0.9 1.6-0.9 0.4-0.6-0.1-1.5-0.8-1.3-0.1 0-0.8 0.4-1.6 0.8-0.9 0.6-1.4 0.8-1.4 0.8-0.1-0.1 0-0.6 0.1-1.3 0.1-1.3 0.1-1.4-0.2-1.7-0.4-0.4-1.1-0.2-1.3 0.3 0 0.1-0.1 1-0.2 2-0.1 0.9-0.2 1.8-0.3 1.8 0 0-4.3 2.5-4.6 2.7h-0.1v-2.7-2.8l1.5-1.1c0.9-0.6 1.6-1.2 1.6-1.3 0.1 0 0.1-0.2 0.1-0.3 0.1-0.5-0.4-1-0.9-0.9-0.1 0-0.6 0.3-1.2 0.8l-1.1 0.8v-1.7c0-1.7 0-1.8-0.1-1.9-0.1-0.1-0.2-0.2-0.2-0.3-0.2-0.1-0.6-0.1-0.8 0z"/>
	<path id="Layer" fill-rule="evenodd" class="s1" d="m24.8 34.9c2.2-23.6 26.3-17 26.3-17 0 0 6.4-16.6 24.9-16.9 27.4 0.7 27 27 27 27 0 0 0.2 5.5-1 8 9.2 0.4 13.6 20.1 0 23-1.7 13-71.8 16-79.7 0.9-13-1-12.3-11.9-12.3-11.9 0 0-2.1-12.6 14.8-13.1zm-0.8 22.1c3.3 13.8 69.2 13.3 76 0 5.1-1.2 14.8-12.1-1-20 9.6-32.5-33.9-45.6-47-15-5.8-3-22.9-5.9-25 16-23.2 0.1-12.8 22.1-3 19z"/>
</svg>