<svg version="1.2" xmlns="http://www.w3.org/2000/svg" viewBox="0 0 122 101" width="122" height="101">
	<title>drizzle1-svg</title>
	<style>
		.s0 { fill: #ffffff } 
		.s1 { fill: #ffffff;stroke: #ffd450;stroke-linecap: round;stroke-linejoin: round;stroke-width: 0 } 
	</style>
	<path id="Layer" class="s0" d="m61.1 76.5c-0.1 0.1-0.2 0.2-0.3 0.3 0 0.1 0 0.6 0 1.3v1.2l-0.7-0.5q-0.8-0.6-0.9-0.6c-0.4-0.1-0.7 0.2-0.7 0.6 0 0.1 0.1 0.2 0.1 0.2 0 0.1 0.5 0.5 1.1 0.9l1.1 0.8v2c0 1 0 1.9 0 1.9-0.3-0.1-3.3-1.9-3.3-1.9-0.1 0-0.1-0.5-0.2-1.3-0.1-0.7-0.2-1.3-0.2-1.4 0-0.1-0.2-0.3-0.4-0.4q-0.3 0-0.5 0.2c-0.2 0.2-0.2 0.2-0.1 1.2 0 0.5 0.1 0.9 0.1 0.9 0 0-0.5-0.2-1-0.5-0.6-0.4-1.1-0.6-1.2-0.7q-0.2 0-0.5 0.2c-0.2 0.2-0.2 0.5 0 0.8 0 0 0.5 0.3 1.1 0.6 0.5 0.4 1 0.6 1 0.6 0 0.1-0.4 0.2-0.8 0.4-0.6 0.3-0.8 0.4-0.9 0.5-0.4 0.3-0.1 0.9 0.4 0.9 0.1 0 0.6-0.2 1.3-0.5l1.3-0.5 1.6 0.9c0.9 0.5 1.7 1 1.7 1 0 0-0.8 0.4-1.7 1l-1.6 0.9-1.3-0.5c-0.7-0.3-1.2-0.5-1.3-0.5-0.5 0-0.8 0.6-0.4 0.9 0.1 0.1 0.3 0.2 0.9 0.5 0.4 0.2 0.8 0.3 0.8 0.3 0 0-0.5 0.3-1 0.6-0.6 0.4-1.1 0.7-1.1 0.7-0.3 0.4 0 1 0.5 0.9 0.1 0 0.6-0.3 1.2-0.6 0.5-0.3 1-0.5 1-0.5 0 0-0.1 0.4-0.1 0.9-0.1 0.9-0.1 1 0.1 1.2 0.3 0.3 0.8 0.1 0.9-0.2 0-0.1 0.1-0.7 0.2-1.4q0.1-1.2 0.2-1.3c0 0 3-1.8 3.3-1.9 0 0 0 0.9 0 1.9v1.9l-1.1 0.9c-0.6 0.4-1.1 0.8-1.1 0.8 0 0.1-0.1 0.2-0.1 0.3 0 0.4 0.3 0.7 0.7 0.6q0.1 0 0.9-0.6l0.7-0.5v1.2c0 1.2 0 1.3 0.1 1.4 0.1 0.2 0.2 0.2 0.5 0.2 0.2 0 0.3 0 0.4-0.2 0.1-0.1 0.1-0.2 0.1-1.4v-1.2l0.8 0.5q0.7 0.6 0.8 0.6c0.4 0.1 0.8-0.2 0.7-0.6 0-0.1 0-0.2-0.1-0.3 0 0-0.5-0.4-1.1-0.8l-1.1-0.9v-1.9c0-1 0-1.9 0.1-1.9 0.2 0.1 3.2 1.9 3.2 1.9q0.1 0.1 0.2 1.3c0.1 0.7 0.2 1.3 0.2 1.4 0.1 0.3 0.6 0.5 0.9 0.2 0.2-0.2 0.2-0.3 0.1-1.2 0-0.5-0.1-0.9-0.1-0.9q0.1-0.1 1.1 0.5c0.5 0.3 1 0.6 1.1 0.6q0.3 0.1 0.5-0.1c0.2-0.2 0.2-0.6 0-0.8 0 0-0.5-0.3-1.1-0.7-0.5-0.3-1-0.6-1-0.6 0.1 0 0.4-0.1 0.9-0.3 0.6-0.3 0.8-0.4 0.9-0.5 0.3-0.3 0-0.9-0.5-0.9 0 0-0.6 0.2-1.3 0.5l-1.2 0.5-1.7-0.9c-0.9-0.6-1.7-1-1.7-1 0 0 0.8-0.5 1.7-1l1.7-0.9 1.2 0.5c0.7 0.3 1.3 0.5 1.3 0.5 0.5 0 0.8-0.6 0.5-0.9-0.1-0.1-0.3-0.2-0.9-0.5-0.5-0.2-0.8-0.3-0.9-0.3 0-0.1 0.5-0.3 1-0.7 0.6-0.3 1.1-0.6 1.1-0.6 0.4-0.4 0-1.1-0.5-1-0.1 0.1-0.6 0.3-1.1 0.7q-1 0.5-1.1 0.5c0 0 0.1-0.4 0.1-0.9 0.1-1 0.1-1-0.1-1.2-0.3-0.3-0.8-0.2-0.9 0.2 0 0.1-0.1 0.7-0.2 1.4 0 0.7-0.1 1.3-0.1 1.3-0.1 0-3.1 1.7-3.3 1.9h-0.1v-1.9-2l1.1-0.8c0.6-0.4 1.1-0.8 1.1-0.9 0.1 0 0.1-0.1 0.1-0.2 0.1-0.4-0.3-0.7-0.7-0.6q-0.1 0-0.8 0.6l-0.8 0.5v-1.2c0-1.2 0-1.3-0.1-1.4 0 0-0.1-0.1-0.1-0.2-0.1 0-0.4-0.1-0.6 0z"/>
	<path id="Layer copy" class="s0" d="m38.1 76.5c-0.1 0.1-0.2 0.2-0.3 0.3 0 0.1 0 0.6 0 1.3v1.2l-0.7-0.5q-0.8-0.6-0.9-0.6c-0.4-0.1-0.7 0.2-0.7 0.6 0 0.1 0.1 0.2 0.1 0.2 0 0.1 0.5 0.5 1.1 0.9l1.1 0.8v2c0 1 0 1.9 0 1.9-0.3-0.1-3.3-1.9-3.3-1.9-0.1 0-0.1-0.5-0.2-1.3-0.1-0.7-0.2-1.3-0.2-1.4 0-0.1-0.2-0.3-0.4-0.4q-0.3 0-0.5 0.2c-0.2 0.2-0.2 0.2-0.1 1.2 0 0.5 0.1 0.9 0.1 0.9 0 0-0.5-0.2-1-0.5-0.6-0.4-1.1-0.6-1.2-0.7q-0.2 0-0.5 0.2c-0.2 0.2-0.2 0.5 0 0.8 0 0 0.5 0.3 1.1 0.6 0.5 0.4 1 0.6 1 0.6 0 0.1-0.4 0.2-0.8 0.4-0.6 0.3-0.8 0.4-0.9 0.5-0.4 0.3-0.1 0.9 0.4 0.9 0.1 0 0.6-0.2 1.3-0.5l1.3-0.5 1.6 0.9c0.9 0.5 1.7 1 1.7 1 0 0-0.8 0.4-1.7 1l-1.6 0.9-1.3-0.5c-0.7-0.3-1.2-0.5-1.3-0.5-0.5 0-0.8 0.6-0.4 0.9 0.1 0.1 0.3 0.2 0.9 0.5 0.4 0.2 0.8 0.3 0.8 0.3 0 0-0.5 0.3-1 0.6-0.6 0.4-1.1 0.7-1.1 0.7-0.3 0.4 0 1 0.5 0.9 0.1 0 0.6-0.3 1.2-0.6 0.5-0.3 1-0.5 1-0.5 0 0-0.1 0.4-0.1 0.9-0.1 0.9-0.1 1 0.1 1.2 0.3 0.3 0.8 0.1 0.9-0.2 0-0.1 0.1-0.7 0.2-1.4q0.1-1.2 0.2-1.3c0 0 3-1.8 3.3-1.9 0 0 0 0.9 0 1.9v1.9l-1.1 0.9c-0.6 0.4-1.1 0.8-1.1 0.8 0 0.1-0.1 0.2-0.1 0.3 0 0.4 0.3 0.7 0.7 0.6q0.1 0 0.9-0.6l0.7-0.5v1.2c0 1.2 0 1.3 0.1 1.4 0.1 0.2 0.2 0.2 0.5 0.2 0.2 0 0.3 0 0.4-0.2 0.1-0.1 0.1-0.2 0.1-1.4v-1.2l0.8 0.5q0.7 0.6 0.8 0.6c0.4 0.1 0.8-0.2 0.7-0.6 0-0.1 0-0.2-0.1-0.3 0 0-0.5-0.4-1.1-0.8l-1.1-0.9v-1.9c0-1 0-1.9 0.1-1.9 0.2 0.1 3.2 1.9 3.2 1.9q0.1 0.1 0.2 1.3c0.1 0.7 0.2 1.3 0.2 1.4 0.1 0.3 0.6 0.5 0.9 0.2 0.2-0.2 0.2-0.3 0.1-1.2 0-0.5-0.1-0.9-0.1-0.9q0.1-0.1 1.1 0.5c0.5 0.3 1 0.6 1.1 0.6q0.3 0.1 0.5-0.1c0.2-0.2 0.2-0.6 0-0.8 0 0-0.5-0.3-1.1-0.7-0.5-0.3-1-0.6-1-0.6 0.1 0 0.4-0.1 0.9-0.3 0.6-0.3 0.8-0.4 0.9-0.5 0.3-0.3 0-0.9-0.5-0.9 0 0-0.6 0.2-1.3 0.5l-1.2 0.5-1.7-0.9c-0.9-0.6-1.7-1-1.7-1 0 0 0.8-0.5 1.7-1l1.7-0.9 1.2 0.5c0.7 0.3 1.3 0.5 1.3 0.5 0.5 0 0.8-0.6 0.5-0.9-0.1-0.1-0.3-0.2-0.9-0.5-0.5-0.2-0.8-0.3-0.9-0.3 0-0.1 0.5-0.3 1-0.7 0.6-0.3 1.1-0.6 1.1-0.6 0.4-0.4 0-1.1-0.5-1-0.1 0.1-0.6 0.3-1.1 0.7q-1 0.5-1.1 0.5c0 0 0.1-0.4 0.1-0.9 0.1-1 0.1-1-0.1-1.2-0.3-0.3-0.8-0.2-0.9 0.2 0 0.1-0.1 0.7-0.2 1.4 0 0.7-0.1 1.3-0.1 1.3-0.1 0-3.1 1.7-3.3 1.9h-0.1v-1.9-2l1.1-0.8c0.6-0.4 1.1-0.8 1.1-0.9 0.1 0 0.1-0.1 0.1-0.2 0.1-0.4-0.3-0.7-0.7-0.6q-0.1 0-0.8 0.6l-0.8 0.5v-1.2c0-1.2 0-1.3-0.1-1.4 0 0-0.1-0.1-0.1-0.2-0.1 0-0.4-0.1-0.6 0z"/>
	<path id="Layer copy 2" class="s0" d="m84.1 76.5c-0.1 0.1-0.2 0.2-0.3 0.3 0 0.1 0 0.6 0 1.3v1.2l-0.7-0.5q-0.8-0.6-0.9-0.6c-0.4-0.1-0.7 0.2-0.7 0.6 0 0.1 0.1 0.2 0.1 0.2 0 0.1 0.5 0.5 1.1 0.9l1.1 0.8v2c0 1 0 1.9 0 1.9-0.3-0.1-3.3-1.9-3.3-1.9-0.1 0-0.1-0.5-0.2-1.3-0.1-0.7-0.2-1.3-0.2-1.4 0-0.1-0.2-0.3-0.4-0.4q-0.3 0-0.5 0.2c-0.2 0.2-0.2 0.2-0.1 1.2 0 0.5 0.1 0.9 0.1 0.9 0 0-0.5-0.2-1-0.5-0.6-0.4-1.1-0.6-1.2-0.7q-0.2 0-0.5 0.2c-0.2 0.2-0.2 0.5 0 0.8 0 0 0.5 0.3 1.1 0.6 0.5 0.4 1 0.6 1 0.6 0 0.1-0.4 0.2-0.8 0.4-0.6 0.3-0.8 0.4-0.9 0.5-0.4 0.3-0.1 0.9 0.4 0.9 0.1 0 0.6-0.2 1.3-0.5l1.3-0.5 1.6 0.9c0.9 0.5 1.7 1 1.7 1 0 0-0.8 0.4-1.7 1l-1.6 0.9-1.3-0.5c-0.7-0.3-1.2-0.5-1.3-0.5-0.5 0-0.8 0.6-0.4 0.9 0.1 0.1 0.3 0.2 0.9 0.5 0.4 0.2 0.8 0.3 0.8 0.3 0 0-0.5 0.3-1 0.6-0.6 0.4-1.1 0.7-1.1 0.7-0.3 0.4 0 1 0.5 0.9 0.1 0 0.6-0.3 1.2-0.6 0.5-0.3 1-0.5 1-0.5 0 0-0.1 0.4-0.1 0.9-0.1 0.9-0.1 1 0.1 1.2 0.3 0.3 0.8 0.1 0.9-0.2 0-0.1 0.1-0.7 0.2-1.4q0.1-1.2 0.2-1.3c0 0 3-1.8 3.3-1.9 0 0 0 0.9 0 1.9v1.9l-1.1 0.9c-0.6 0.4-1.1 0.8-1.1 0.8 0 0.1-0.1 0.2-0.1 0.3 0 0.4 0.3 0.7 0.7 0.6q0.1 0 0.9-0.6l0.7-0.5v1.2c0 1.2 0 1.3 0.1 1.4 0.1 0.2 0.2 0.2 0.5 0.2 0.2 0 0.3 0 0.4-0.2 0.1-0.1 0.1-0.2 0.1-1.4v-1.2l0.8 0.5q0.7 0.6 0.8 0.6c0.4 0.1 0.8-0.2 0.7-0.6 0-0.1 0-0.2-0.1-0.3 0 0-0.5-0.4-1.1-0.8l-1.1-0.9v-1.9c0-1 0-1.9 0.1-1.9 0.2 0.1 3.2 1.9 3.2 1.9q0.1 0.1 0.2 1.3c0.1 0.7 0.2 1.3 0.2 1.4 0.1 0.3 0.6 0.5 0.9 0.2 0.2-0.2 0.2-0.3 0.1-1.2 0-0.5-0.1-0.9-0.1-0.9q0.1-0.1 1.1 0.5c0.5 0.3 1 0.6 1.1 0.6q0.3 0.1 0.5-0.1c0.2-0.2 0.2-0.6 0-0.8 0 0-0.5-0.3-1.1-0.7-0.5-0.3-1-0.6-1-0.6 0.1 0 0.4-0.1 0.9-0.3 0.6-0.3 0.8-0.4 0.9-0.5 0.3-0.3 0-0.9-0.5-0.9 0 0-0.6 0.2-1.3 0.5l-1.2 0.5-1.7-0.9c-0.9-0.6-1.7-1-1.7-1 0 0 0.8-0.5 1.7-1l1.7-0.9 1.2 0.5c0.7 0.3 1.3 0.5 1.3 0.5 0.5 0 0.8-0.6 0.5-0.9-0.1-0.1-0.3-0.2-0.9-0.5-0.5-0.2-0.8-0.3-0.9-0.3 0-0.1 0.5-0.3 1-0.7 0.6-0.3 1.1-0.6 1.1-0.6 0.4-0.4 0-1.1-0.5-1-0.1 0.1-0.6 0.3-1.1 0.7q-1 0.5-1.1 0.5c0 0 0.1-0.4 0.1-0.9 0.1-1 0.1-1-0.1-1.2-0.3-0.3-0.8-0.2-0.9 0.2 0 0.1-0.1 0.7-0.2 1.4 0 0.7-0.1 1.3-0.1 1.3-0.1 0-3.1 1.7-3.3 1.9h-0.1v-1.9-2l1.1-0.8c0.6-0.4 1.1-0.8 1.1-0.9 0.1 0 0.1-0.1 0.1-0.2 0.1-0.4-0.3-0.7-0.7-0.6q-0.1 0-0.8 0.6l-0.8 0.5v-1.2c0-1.2 0-1.3-0.1-1.4 0 0-0.1-0.1-0.1-0.2-0.1 0-0.4-0.1-0.6 0z"/>
	<path id="Layer" fill-rule="evenodd" class="s1" d="m25.8 37.9c2.2-23.6 26.3-17 26.3-17 0 0 6.4-16.6 24.9-16.9 27.4 0.7 27 27 27 27 0 0 0.2 5.5-1 8 9.2 0.4 13.6 20.1 0 23-1.7 13-71.8 16-79.7 0.9-13-1-12.3-11.9-12.3-11.9 0 0-2.1-12.6 14.8-13.1zm-0.8 22.1c3.3 13.8 69.2 13.3 76 0 5.1-1.2 14.8-12.1-1-20 9.6-32.5-33.9-45.6-47-15-5.8-3-22.9-5.9-25 16-23.2 0.1-12.8 22.1-3 19z"/>
</svg>