<svg version="1.2" xmlns="http://www.w3.org/2000/svg" viewBox="0 0 122 101" width="122" height="101">
	<title>drizzle1-svg</title>
	<style>
		.s0 { fill: #ffffff;stroke: #ffd450;stroke-linecap: round;stroke-linejoin: round;stroke-width: 0 } 
		.s1 { fill: #ffd450;stroke: #ffd450;stroke-linecap: round;stroke-linejoin: round;stroke-width: 0 } 
	</style>
	<path id="Hình dạng 2" fill-rule="evenodd" class="s0" d="m24.8 37.9c2.2-23.6 26.3-17 26.3-17 0 0 6.4-16.6 24.9-16.9 27.4 0.7 27 27 27 27 0 0 0.2 5.5-1 8 9.2 0.4 13.6 20.1 0 23-0.6 4.8-10.7 8.3-23.5 9.9l0.1-3c10.6-1.6 19.2-4.5 21.4-8.9 5.1-1.2 14.8-12.1-1-20 9.6-32.5-33.9-45.6-47-15-5.8-3-22.9-5.9-25 16-23.2 0.1-12.8 22.1-3 19 1.4 6 14.5 9.2 29.4 10l-1.6 2.8c-14.1-0.9-26.4-4.1-29.5-9.9-13-1-12.3-11.9-12.3-11.9 0 0-2.1-12.6 14.8-13.1z"/>
	<path id="Hình dạng 4" fill-rule="evenodd" class="s1" d="m75.6 58.1c-3.5 5.6-7 11.4-7 11.4 0 0 8.8-0.1 11.4 0 3.9 0 0 3.5 0 3.5 0 0-13.4 13.1-19.3 18.9-1.8 1.8-3.4 1.2-2.8-0.9 0.8-3.2 3.1-12 3.1-12 0 0-11.5 0.1-11.6 0-2.9 0-1.7-2-1.7-2l13.3-22h14c0 0 2.4-0.1 0.6 3.1zm-24.1 17.9h10.5c0 0 3.1-0.2 2 3-0.8 2.4-2.1 5.7-3 8.9 0.1-0.1 15.5-15.2 15.5-15.2 0 0 0 0-9.9 0-4.3-0.1-1.6-3.7-1.6-3.7l7.7-12c0 0-7.8 0-9.7 0 0 0-11.5 19-11.5 19z"/>
</svg>