<svg version="1.2" xmlns="http://www.w3.org/2000/svg" viewBox="0 0 122 101" width="122" height="101">
	<title>drizzle1-svg</title>
	<style>
		.s0 { fill: #ffd450;stroke: #ffd450;stroke-linecap: round;stroke-linejoin: round;stroke-width: 0 } 
		.s1 { fill: #ffd450;stroke: #ffd450;stroke-linecap: round;stroke-linejoin: round;stroke-width: 1.3 } 
		.s2 { fill: #ffffff;stroke: #ffffff;stroke-linecap: round;stroke-linejoin: round;stroke-width: 1.3 } 
	</style>
	<path id="Hình dạng 4" class="s0" d="m71.5 78.5c-7.7 0-14-6.2-14-14 0-7.7 6.3-14 14-14 7.8 0 14 6.3 14 14 0 7.8-6.2 14-14 14zm-4.5-36.5h9v13h-9zm0-8h9v4h-9zm0-9h9v5h-9zm4.5 5c-2.5 0-4.5-2-4.5-4.5 0-2.5 2-4.5 4.5-4.5 2.5 0 4.5 2 4.5 4.5 0 2.5-2 4.5-4.5 4.5z"/>
	<path id="Hình dạng 1" fill-rule="evenodd" class="s1" d="m41.2 41.7c-4.8 0-8.6-3.8-8.6-8.5 0-4.8 3.8-8.6 8.6-8.6 4.7 0 8.5 3.8 8.5 8.6 0 4.7-3.8 8.5-8.5 8.5zm7.3-8.5c0-4.1-3.3-7.4-7.3-7.4-4.1 0-7.4 3.3-7.4 7.4 0 4 3.3 7.3 7.4 7.3 4 0 7.3-3.3 7.3-7.3zm-14.2-7.2l-0.2 0.3-2.3-2.4 0.2-0.2zm6.6-7.1h0.3v4.5h-0.3zm-6.9 20.7l0.3 0.3-2.4 2.3-0.2-0.2zm-7.1-6.9h4.5v0.3h-4.5zm20.9 7.1l0.2-0.2 2.3 2.4-0.2 0.2zm-6.9 2.6h0.4v4.4h-0.4zm7-16.3l-0.2-0.2 2.3-2.3 0.3 0.2zm2.6 6.5h4.4v0.4h-4.4z"/>
	<path id="Hình dạng 3" fill-rule="evenodd" class="s2" d="m71.5 86c-12.5 0-21.5-8.9-21.5-21.4 0-8.7 4.5-15.9 11.5-19.3v-21.1q0-0.4 0-0.7c0-6.4 4.5-10.3 9.9-10.2 5.4 0 9.8 3.7 10 9.8v22.1c7.1 3.4 11.7 10.6 11.7 19.4 0 12.4-9.2 21.4-21.6 21.4zm7.5-41.8v-13.1q0 0 0 0v-8.1c-0.3-3.9-3.5-7-7.5-7-3.9 0-7.3 3.1-7.5 7h-0.1l0.1 24.8c-6.3 3.2-10.9 9.8-10.9 16.8 0 9.7 8.7 18.4 18.4 18.4 9.6 0 18.5-8.8 18.5-18.5 0-7.1-4.7-13.8-11-16.8v-3.5q0 0 0 0z"/>
</svg>