<svg xmlns="http://www.w3.org/2000/svg" version="1.2" viewBox="0 0 1080 1080" width="1080" height="1080">
	
	
	
	
	<g id="colorhunt-logo-face">
		<g id="Group-14">
			<g id="Group-9">
				<path d="m920.1 353.6c18.1-7.3 38.6 1.5 45.9 19.5c7.3 18.1-1.4 38.7-19.4 46q-45.9 18.5-92.8 32.7l-23.6 6.8l-70.6 17c-71.8 14.8-145.3 22.3-219.8 22.3c-67.9 0-134.9-6.2-200.7-18.5l-19-3.8h-2.8l-70.6-17.8c-38.4-10.7-76.4-23.7-113.6-38.7c-18.1-7.3-26.8-27.9-19.5-46c7.3-18 27.9-26.8 45.9-19.5c120.9 48.9 248.8 73.7 380.3 73.7c131.5 0 259.4-24.8 380.3-73.7z" fill="#fff"/>
			</g>
			<circle cx="299.6" cy="257.7" r="54.3" fill="#fff"/>
			<circle cx="780" cy="257.7" r="54.3" fill="#fff"/>
		</g>
	</g>
	<g id="colorhunt-logo-tongue">
		<g id="Group-14">
			<path d="m352.5 788.3v-6.5h442.4v6.5c0 121.9-99.2 221.1-221.2 221.1c-121.9 0-221.2-99.2-221.2-221.1z" fill="#924992 "/>
			<path d="m794.9 788.3c0 48.2-15.6 92.8-41.9 129.2h-358.6c-26.3-36.4-41.9-81-41.9-129.2v-125.9h442.4z" fill="#ff6868 "/>
			<path d="m794.9 470.7v286.7h-442.4v-286.7q368.7 0 442.4 0z" fill="#feed30 "/>
			<g id="Group-9">
				<path d="m830.2 458.6v329.7c0 160.8-130.9 291.7-291.8 291.7c-160.8 0-291.7-130.9-291.7-291.7v-330.5zm-70.6 17.1l-442.3-0.6v313.2c0 122 99.2 221.2 221.2 221.2c121.9 0 221.1-99.2 221.1-221.2z" fill="#fff"/>
			</g>
		</g>
	</g>
</svg>
