<svg xmlns="http://www.w3.org/2000/svg" version="1.2" viewBox="0 0 448 512" width="448" height="512">
	
	
	<path d="m63 77c40-8 65-29 116-29c63 0 87 32 150 32c37 0 56-9 119-32v336c-63 23-82 32-119 32c-63 0-87-32-150-32c-20 0-36 4-51 8v-64c15-4 31-8 51-8c63 0 87 32 150 32c20 0 35-3 55-9v-208c-20 6-35 9-55 9c-63 0-87-32-150-32c-51 0-76 21-116 29z" fill="#538dd7"/>
	<path d="m64 141v307c0.1 4.2-0.7 8.4-2.3 12.3c-1.6 3.9-4 7.5-7 10.4c-2.9 3-6.5 5.4-10.4 7c-3.9 1.6-8.1 2.4-12.3 2.3c-4.2 0.1-8.4-0.7-12.3-2.3c-3.9-1.6-7.5-4-10.4-7c-3-2.9-5.4-6.5-7-10.4c-1.6-3.9-2.4-8.1-2.3-12.3v-384c-0.1-4.2 0.7-8.4 2.3-12.3c1.6-3.9 4-7.5 7-10.4c2.9-3 6.5-5.4 10.4-7c3.9-1.6 8.1-2.4 12.3-2.3c4.2-0.1 8.4 0.7 12.3 2.3c3.9 1.6 7.5 4 10.4 7c3 2.9 5.4 6.5 7 10.4c1.6 3.9 2.4 8.1 2.3 12.3v13c0 0 0 64 0 64zm0 0m0 0" fill="#bdd5ec"/>
</svg>
