<svg xmlns="http://www.w3.org/2000/svg" viewBox="0 0 35 35" width="35" height="35" preserveAspectRatio="xMidYMid meet" style="width: 100%; height: 100%; transform: translate3d(0px, 0px, 0px);"><g clip-path="url(#__lottie_element_53)"><g style="display: block;" transform="matrix(1,0,0,1,127.7509994506836,9.538000106811523)" opacity="0.9999995413532837"></g><g style="display: block;" transform="matrix(1,0,0,1,45.75,7.75)" opacity="0.9999993389967776"></g><g mask="url(#__lottie_element_68)" style="display: block;" transform="matrix(1,0,0,1,1.25,5.75)" opacity="0.9999991133726199"><g opacity="1" transform="matrix(1,0,0,1,12,11.75)"><path fill="rgb(251,188,4)" fill-opacity="1" d=" M-11.75,11.5 C-11.75,11.5 2.75,-11.5 2.75,-11.5 C2.75,-11.5 11.75,-11.5 11.75,-11.5 C11.75,-11.5 11.75,-8.300000190734863 11.75,-8.300000190734863 C11.75,-8.300000190734863 -0.75,11.5 -0.75,11.5"></path></g></g><g style="display: block;" transform="matrix(1,0,0,1,15.75,5.75)" opacity="0.999999801137886"><g opacity="1" transform="matrix(1,0,0,1,4.75,11.75)"><path fill="rgb(26,115,232)" fill-opacity="1" d=" M4.5,11.5 C4.5,11.5 -4.5,11.5 -4.5,11.5 C-4.5,11.5 -4.5,-11.5 -4.5,-11.5 C-4.5,-11.5 4.5,-11.5 4.5,-11.5 C4.5,-11.5 4.5,11.5 4.5,11.5z"></path></g></g><g style="display: block;" transform="matrix(1,0,0,1,24.75,15.75)" opacity="0.9999998565074808"><g opacity="1" transform="matrix(1,0,0,1,3.5,6.75)"><path fill="rgb(52,168,83)" fill-opacity="1" d=" M3.25,0 C3.25,3.5899999141693115 0.3400000035762787,6.5 -3.25,6.5 C-3.25,6.5 -3.25,-6.5 -3.25,-6.5 C0.3400000035762787,-6.5 3.25,-3.5899999141693115 3.25,0z"></path></g></g><g style="display: block;" transform="matrix(1,0,0,1,18.25,15.75)" opacity="0.9999998565074808"><g opacity="1" transform="matrix(1,0,0,1,3.5,6.75)"><path fill="rgb(13,101,45)" fill-opacity="1" d=" M3.25,6.5 C-0.3400000035762787,6.5 -3.25,3.5899999141693115 -3.25,0 C-3.25,-3.5899999141693115 -0.3400000035762787,-6.5 3.25,-6.5 C3.25,-6.5 3.25,6.5 3.25,6.5z"></path></g></g><g style="display: block;" transform="matrix(0.9999999403953552,0,0,0.9999999403953552,24.75,5.75)" opacity="0.9999992765310773"><g opacity="1" transform="matrix(1,0,0,1,2.75,5.25)"><path fill="rgb(26,115,232)" fill-opacity="1" d=" M2.5,0 C2.5,2.760999917984009 0.2619999945163727,5 -2.5,5 C-2.5,5 -2.5,-5 -2.5,-5 C0.2619999945163727,-5 2.5,-2.760999917984009 2.5,0z"></path></g></g><g style="display: block;" transform="matrix(0.9999999403953552,0,0,0.9999999403953552,19.75,5.75)" opacity="0.9999992765310773"><g opacity="1" transform="matrix(1,0,0,1,2.75,5.25)"><path fill="rgb(23,78,166)" fill-opacity="1" d=" M2.5,5 C-0.2619999945163727,5 -2.5,2.760999917984009 -2.5,0 C-2.5,-2.760999917984009 -0.2619999945163727,-5 2.5,-5 C2.5,-5 2.5,5 2.5,5z"></path></g></g><g style="display: block;" transform="matrix(0.9999999403953552,0,0,0.9999999403953552,1.7500004768371582,5.75)" opacity="0.9999989818016027"><g opacity="1" transform="matrix(1,0,0,1,4.75,4.75)"><path fill="rgb(234,67,53)" fill-opacity="1" d=" M-4.5,0 C-4.5,-2.484999895095825 -2.484999895095825,-4.5 0,-4.5 C2.484999895095825,-4.5 4.5,-2.484999895095825 4.5,0 C4.5,2.484999895095825 2.484999895095825,4.5 0,4.5 C-2.484999895095825,4.5 -4.5,2.484999895095825 -4.5,0z"></path></g></g></g></svg>
