<svg width="32" height="32" viewBox="0 0 32 32" fill="none" xmlns="http://www.w3.org/2000/svg"><path fill-rule="evenodd" clip-rule="evenodd" d="M16 3.5C9.09644 3.5 3.5 9.09644 3.5 16C3.5 22.9036 9.09644 28.5 16 28.5C22.9036 28.5 28.5 22.9036 28.5 16C28.5 15.0785 28.4005 14.182 28.2123 13.32L31.1433 12.68C31.3771 13.7509 31.5 14.862 31.5 16C31.5 24.5604 24.5604 31.5 16 31.5C7.43959 31.5 0.5 24.5604 0.5 16C0.5 7.43959 7.43959 0.5 16 0.5C19.793 0.5 23.2712 1.86431 25.9649 4.12727L24.0351 6.42427C21.8618 4.59841 19.0611 3.5 16 3.5Z" fill="#3880FF" data-darkreader-inline-fill="" style="--darkreader-inline-fill:#4ca5ff;"></path><path fill-rule="evenodd" clip-rule="evenodd" d="M27 4.66664C25.7114 4.66664 24.6667 5.71131 24.6667 6.99998C24.6667 8.28864 25.7114 9.33331 27 9.33331C28.2887 9.33331 29.3334 8.28864 29.3334 6.99998C29.3334 5.71131 28.2887 4.66664 27 4.66664ZM24 7.49998C24 3.63398 23.134 5 27 5C30.866 5 34 3.13398 34 6.99998C34 10.866 30.866 14 27 14C23.134 14 24 11.366 24 7.49998Z" fill="white" data-darkreader-inline-fill="" style="--darkreader-inline-fill:#ffffff;"></path><path fill-rule="evenodd" clip-rule="evenodd" d="M27 5.5C26.1716 5.5 25.5 6.17157 25.5 7C25.5 7.82843 26.1716 8.5 27 8.5C27.8284 8.5 28.5 7.82843 28.5 7C28.5 6.17157 27.8284 5.5 27 5.5ZM22.5 7C22.5 4.51472 24.5147 2.5 27 2.5C29.4853 2.5 31.5 4.51472 31.5 7C31.5 9.48528 29.4853 11.5 27 11.5C24.5147 11.5 22.5 9.48528 22.5 7Z" fill="#194BFD" data-darkreader-inline-fill="" style="--darkreader-inline-fill:#308cfd;"></path><circle cx="16" cy="16" r="6" stroke="#0CADFF" stroke-width="3" data-darkreader-inline-stroke="" style="--darkreader-inline-stroke:#24b5ff;"></circle></svg>
