<svg xmlns="http://www.w3.org/2000/svg" width="130" height="98"><path fill="#FF7863" d="M297 9.6c3.9.5 7.9 2 9.6 5.9 3.2 5.3-.2 11.4 1.4 17.1 2.6-2.3 4.7-5.2 7.1-7.7 2 .8 2.8 3 3.1 5 .5 4.7.5 9.9-2.4 13.8-2 3.1-5.1 5.1-8.2 6.9.5-2.7 1-5.4 1.6-8.1-1.6 1.2-3.2 2.4-4.7 3.5-2.7-2.6-2.2-6.2-1.2-9.5-2.4 1.1-5.1 1.9-6.7 4-2 2.7-2.7 6.1-3.6 9.2-4.5-3.6-8.6-8.8-8.7-14.8.4-4.7 3.5-8.9 7.3-11.6.7 3.5.4 7.6 3 10.4 4.4-6.9 6-16.3 2.4-24.1zM1.9 85.5v-8.4h8.6zM12 75.7v-8.6h8.8zM21.4 66.5l-5.3-5.2V48.8h12.6l6.1 6.1zM35.7 51.6l-5.3-5.2V33.8h12.1l5.1 5.1zM50.5 35.9L46 31.4V18.6h14v17.3z"/><path fill="#36B1B3" d="M1.9 85.5l34.8-33.9-9.1 33.9z"/><path fill="#258688" d="M24.9 85.5c4.7-43 28.7-62.4 65.8-60.6v60.6H24.9z"/><path fill="#D1D4D4" d="M55.3 91l1.8 5.7h7.7c-1.1-4.2-4.5-5.8-9.5-5.7zM105.1 91l1.8 5.7h7.7c-1.1-4.2-4.5-5.8-9.5-5.7z"/><path fill="#38B1B3" d="M108.8 15H97v-1.7c0-6.6-5.4-12-12-12H70.3c-6.6 0-12 5.4-12 12v15.5c0 9.6 7.8 17.4 17.4 17.4h6.4c.4.1.8.1 1.2.1h25.5c7.9 0 14.2-6.4 14.2-14.2v-2.3h2.6c-1.1-8.3-8.2-14.8-16.8-14.8z"/><path fill="#D1D4D4" d="M57 61.6v12.3c6.4-1.3 8.6-2.6 9.4-11.7l-9.4-.6zM66.5 61.6v12.3c6.4-1.3 8.6-2.6 9.4-11.7l-9.4-.6zM82.9 61.6v12.3c6.4-1.3 8.6-2.6 9.4-11.7l-9.4-.6z"/><path fill="#D1D4D4" d="M92.3 61.6v12.3c6.4-1.3 8.6-2.6 9.4-11.7l-9.4-.6z"/><circle fill="#FFF" cx="110" cy="23.8" r="2.5"/><circle fill="#FFF" cx="117.9" cy="23.8" r="2.5"/><path fill="#37B1B3" d="M57.7 96.7H24.9C24.9 88 32.2 81 41.3 81s16.4 7 16.4 15.7z"/><path fill="#D1D4D4" d="M44.7 96.7H32.4c0-3.1 2.7-5.7 6.1-5.7s6.2 2.6 6.2 5.7zM46.2 91.5c1.2 1.8 2.1 3.5 2.2 5.2h6.9c-1.3-3.6-4-5.7-9.1-5.2z"/><path fill="#37B1B3" d="M107.5 96.7H74.7C74.7 88 82 81 91.1 81s16.4 7 16.4 15.7z"/><path fill="#D1D4D4" d="M94.5 96.7H82.2c0-3.1 2.7-5.7 6.1-5.7s6.2 2.6 6.2 5.7zM96 91.5c1.2 1.8 2.1 3.5 2.2 5.2h6.9c-1.3-3.6-4-5.7-9.1-5.2z"/><path fill="#FFF" d="M71 6.8h-1.2c-2.7 0-5 2.2-5 5v3H76v-3c0-2.8-2.2-5-5-5z"/><path fill="#4B4E4E" d="M69.4 8.9c-1.3 0-2.3 1-2.3 2.3v3.5h4.7v-3.5c-.1-1.2-1.1-2.3-2.4-2.3z"/><path fill="#FFF" d="M86.2 6.8H85c-2.7 0-5 2.2-5 5v3h11.1v-3c0-2.8-2.2-5-4.9-5z"/><path fill="#4B4E4E" d="M84.5 8.9c-1.3 0-2.3 1-2.3 2.3v3.5h4.7v-3.5c0-1.2-1.1-2.3-2.4-2.3z"/><path fill="#FFF" d="M82.4 29.7l3.8 6.2 3.7-6.2zM90.8 29.7l3.7 6.2 3.7-6.2zM99 29.7l3.8 6.2 3.7-6.2zM107.2 29.7l3.8 6.2 3.7-6.2zM115.1 29.7l4.1 6.7 4-6.7z"/><path fill="#37B1B3" d="M57 51.6v12.8h18.9c0-9-5.7-13.3-18.9-12.8zM82.9 51.6v12.8h18.9c0-9-5.7-13.3-18.9-12.8z"/></svg>
