<svg xmlns="http://www.w3.org/2000/svg" version="1.2" viewBox="0 0 53 59" width="53" height="59">
	<g>
		<path fill="#fff" d="m51.7 16.1l-1.8 37.2q0 0.1 0 0.2q0 0 0 0v0.1c-0.2 2.6-2.3 4.7-4.9 4.8h-0.1q0 0-0.1 0q0 0 0 0h-37.4c-2.6-0.1-4.4-2.2-4.7-4.8v-0.1q0 0 0 0q0-0.2 0-0.4l-1.7-37q0-0.1 0-0.1c0-0.6 0.5-1.1 1.1-1.1h11.8c0.3-7.7 5.7-13.8 12.5-13.8c6.7 0 12.2 6.1 12.5 13.8h11.8c0.6 0 1 0.5 1 1.1q0 0 0 0.1zm-34.4-1.2h18.2c-0.2-5.8-4.2-10.5-9.1-10.5c-4.9 0-8.9 4.7-9.1 10.5zm8.5 19.3c-3.7-1.3-5.4-2.9-5.4-5.2c0.2-2.5 2.5-4.4 5.6-4.5q3.8 0.1 6.9 2.2c0.3 0.1 0.4 0.1 0.6-0.1c0-0.1 0-0.2 0.4-0.7c0.3-0.5 0.4-0.7 0.5-0.8q0.2-0.3-0.2-0.6c-0.4-0.3-1.6-1-2.3-1.3c-1.9-0.8-3.9-1.2-5.9-1.2c-4.5 0-8.1 2.9-8.4 6.7q-0.3 4.2 4.1 6.7c0.6 0.4 4 1.7 5.3 2.1c4.3 1.4 6.4 3.8 5.9 6.5c-0.4 2.5-3.1 4.2-6.7 4.2c-2.6-0.1-5.2-1.1-7.4-2.8q-0.1 0-0.2-0.1c-0.1-0.1-0.1-0.1-0.1-0.1q-0.1-0.1-0.1-0.1c-0.2-0.2-0.4-0.1-0.6 0.1c0 0.1-0.1 0.1-0.5 0.8c-0.4 0.5-0.5 0.7-0.6 0.8c-0.1 0.2-0.1 0.3 0.1 0.5c0.9 0.7 2 1.4 2.7 1.8q3.1 1.6 6.7 1.8c1.5 0.1 3.5-0.3 4.9-0.9c2.6-1.1 4.2-3.3 4.6-6c0.5-4.5-2.4-7.4-9.9-9.8z"/>
	</g>
</svg>
