<svg xmlns="http://www.w3.org/2000/svg" version="1.2" viewBox="0 0 28 36" width="28" height="36"><path d="m22.2 6.6l-7.3 7.3c-0.8-0.9-2-1.4-3.3-1.4c-2.5 0-4.5 2.1-4.5 4.6c0 1.8 1.1 3.4 2.7 4.1v2c-0.7-0.1-1.4-0.3-2.1-0.6c-2.1-0.7-3.8-2-5.2-3.7q-0.1-0.1-0.1-0.2q-0.1 0-0.1 0c-1.5-2.1-2.3-4.5-2.3-7c0-2.6 0.8-5 2.3-7c1.1-1.5 2.5-2.6 4-3.4c1.7-0.9 3.5-1.3 5.4-1.3c2.4 0 4.7 0.8 6.7 2.1c1.6 1.2 2.9 2.7 3.8 4.5zm2.7 7.5c-0.7-0.9-1.5-1.7-2.5-2.4c-0.5-0.4-1-0.8-1.6-1.1l-6.4 6.5c0-1.5-1.2-2.7-2.7-2.7c-1.5 0-2.7 1.2-2.7 2.7c0 1.5 1.2 2.7 2.7 2.7v5.4c-1.7 0-3.2-0.3-4.6-0.8l-4.6 4.5c1.9 3.5 5.2 6 9.2 6.8c0.8 0.2 1.7 0.3 2.7 0.3c7.4 0 13.5-6 13.5-13.5c0-3.1-1-5.9-2.7-8.1z" fill="#1e88e5"/></svg>
