<svg version="1.2" xmlns="http://www.w3.org/2000/svg" viewBox="0 0 400 400" width="400" height="400">
	<title>logo_144c91a</title>
	<style>
		.s0 { fill: #ff004f } 
		.s1 { fill: #00f7ef } 
		.s2 { fill: #ffffff } 
	</style>
	<path id="Hình dạng 1" class="s0" d="m221 51h55c0 0-1 71.8 76 76c0 1.5 0.3 55 0 55c-45.8 0.8-76-25-76-25c0 0 0.1 117.1 0 117c-4.7 63.4-60 96.4-100 94c-50 3-100.8-41.2-101-101c0.3-40.3 27.5-95.8 99-99c7.6 0 15 1 15 1v55c0 0-51-13.3-60 43c-0.3 0.4 1.3 45.2 46 47c0.2 0.4 41 1 46-44c0.7 0 0-219 0-219z"/>
	<path id="Hình dạng 1 copy" class="s1" d="m205 38h55c0 0-1 71.8 76 76c0 1.5 0.3 55 0 55c-45.8 0.8-76-25-76-25c0 0 0.1 117.1 0 117c-4.7 63.4-60 96.4-100 94c-50 3-100.8-41.2-101-101c0.3-40.3 27.5-95.8 99-99c7.6 0 15 1 15 1v55c0 0-51-13.3-60 43c-0.3 0.4 1.3 45.2 46 47c0.2 0.4 41 1 46-44c0.7 0 0-219 0-219z"/>
	<path id="Hình dạng 2" class="s2" d="m221 52h40c0 0 6 33.4 34 50c21.4 23 41 25 41 25v42c0 0-50.8 0.2-76-25c-0.2-0.4 0 116 0 116c0 0-4.2 90.6-100 95c-37 1.4-58.9-18.9-58.9-18.9c0 0-27.7-26.3-26.1-68.1c6-98.6 98-99 98-99v42c0 0-52.6-12.2-60 42c2.2 33 25 43 25 43c0 0 13 17.6 36 19c46.6-2.2 48-47 48-47z"/>
</svg>