<svg width="27" height="26" viewBox="0 0 27 26" fill="none" xmlns="http://www.w3.org/2000/svg">
<path d="M1.05382 13.3219C0.0585541 13.8461 0.0998444 14.6139 1.14329 15.0284L4.2349 16.2564C5.2792 16.6727 6.85941 16.4455 7.74458 15.7521L21.17 5.123C22.0525 4.42608 22.1472 4.52885 21.3807 5.35272L10.7674 16.7573C9.99834 17.5786 10.2254 18.5872 11.2732 18.994L11.6353 19.1356C12.6831 19.5424 14.3906 20.2255 15.4315 20.6504L18.8603 22.052C19.902 22.4769 21.0151 21.976 21.311 20.8878L26.5368 1.60387C26.8319 0.515746 26.259 0.0537249 25.2637 0.577061L1.05382 13.3219Z" fill="white"/>
<path d="M9.53811 25.9467C9.47704 26.1307 11.6525 22.7843 11.6525 22.7843C12.2676 21.8412 11.9183 20.716 10.8792 20.2893L8.50671 19.3143C7.46757 18.8877 6.96951 19.3886 7.39962 20.431C7.39962 20.431 9.60091 25.7576 9.53811 25.9467Z" fill="white"/>
</svg>
