<svg width="35" height="35" viewBox="0 0 35 35" fill="none" xmlns="http://www.w3.org/2000/svg">
<path d="M14.0996 28.1991C6.29057 28.1991 0 21.9086 0 14.0996C0 6.29057 6.29057 0 14.0996 0C21.9086 0 28.1991 6.29057 28.1991 14.0996C28.1991 21.9086 21.9086 28.1991 14.0996 28.1991ZM14.0996 2.16916C7.48361 2.16916 2.16916 7.48361 2.16916 14.0996C2.16916 20.7155 7.48361 26.03 14.0996 26.03C20.7155 26.03 26.03 20.7155 26.03 14.0996C26.03 7.48361 20.7155 2.16916 14.0996 2.16916Z" fill="#D9D9D9"/>
<path d="M24.6005 23.0659L34.34 32.8054L32.8064 34.339L23.0669 24.5995L24.6005 23.0659Z" fill="#D9D9D9"/>
</svg>
