<svg xmlns="http://www.w3.org/2000/svg" version="1.2" viewBox="0 0 24 24" width="24" height="24"><path fill="#fff" d="m24 10.8l-0.9 1c-0.1 0.2-0.3 0.2-0.5 0.1l-1.2-1.2v11c0 0.3-0.3 0.6-0.7 0.6h-17.4c-0.3 0-0.6-0.3-0.6-0.6v-11l-1.3 1.2c-0.2 0.1-0.4 0.1-0.5 0l-0.8-1.1c-0.1-0.1-0.1-0.3 0-0.4l10.8-9c0.7-0.5 1.5-0.5 2.2 0l6.2 5.1v-2.5c0-0.2 0.2-0.3 0.4-0.3h1.3c0.2 0 0.3 0.1 0.3 0.3v4.2l2.6 2.1c0.1 0.2 0.2 0.4 0.1 0.5zm-4.7-1.7l-7.1-5.8c-0.1-0.1-0.3-0.1-0.4 0l-7.1 5.8v11.2h14.6zm-7.3 0.9c0.5-0.5 1.4-1 2.4-1 0.6 0 1.2 0.2 1.8 0.7 1.6 1.3 1.4 3.5 0.2 4.6l-3.6 3.8c-0.3 0.3-1.1 0.5-1.6 0l-3.6-3.8c-1.2-1.1-1.4-3.3 0.2-4.6 0.6-0.5 1.2-0.7 1.8-0.7 1 0 1.9 0.5 2.4 1zm1.4 1.4l-1.4 1.5-1.4-1.5c-0.2-0.2-1-0.6-1.5-0.1-0.8 0.6-0.3 1.5-0.1 1.6l3 3.1 3-3.1c0.2-0.1 0.7-1-0.1-1.6-0.5-0.5-1.3-0.1-1.5 0.1z"/></svg>
