<svg version="1.2" xmlns="http://www.w3.org/2000/svg" viewBox="0 0 500 500" width="500" height="500">
	<title>sunset-in-the-desert-publicdomain</title>
	<style>
		.s0 { fill: #fafa00 } 
		.s1 { fill: #e3e902 } 
		.s2 { fill: #ccd904 } 
		.s3 { fill: #b5c806 } 
		.s4 { fill: #9eb708 } 
		.s5 { fill: #ffffff } 
		.s6 { fill: #885c3b } 
		.s7 { fill: #60ae49 } 
		.s8 { fill: #54a139 } 
		.s9 { fill: #83c547 } 
		.s10 { fill: #87a70a } 
		.s11 { fill: #70960c } 
	</style>
	<path id="Hình dạng 7" class="s0" d="m280 500l-1-150c0 0 15.6-4 24-17 9-21.6 19-27 19-27 0 0 40.5-12 37-61 0.5-1 1.5-38 33-40 26 1.5 31 17 31 17l77 278z"/>
	<path id="Hình dạng 6" class="s1" d="m0 500v-316c0 0 11.2-4.4 26-4 29.2 0.8 40.8 8.4 74 31 31.2 19.4 51 28 51 28 0 0 19.8 10.2 21 41-2.4 40.4 12 50 12 50 0 0 18 25 48 25 30 0 29-11 59-11 30 0 70 24 70 24l3 132z"/>
	<path id="Hình dạng 5" class="s2" d="m190 500l3-112c0 0 28-25.6 64-25 45.2 1.8 38.6 16.8 64 19 0.4 0.2 41 11.8 40.6-60.8 0.2-31.6 30.4-56.8 54.4-110.2 0 0 13-29.9 49-30 19-0.1 35 11 35 11v308z"/>
	<path id="Hình dạng 4" class="s3" d="m0 500c0 0 0-299.4 0-301 75 28.6 74 109 74 109 0 0-7.7 68 78 64 90 8.3 95.7 49 141 40 37.3-3 78-44 78-44l-2 132z"/>
	<path id="Hình dạng 3" class="s4" d="m97 500l-1-66c0 0 56.5-26.3 104-24 40.3 1.7 71.3 15.2 87 15 0.5 0.2 66.3 10 112-129 29.7-73.2 101-85 101-85v289z"/>
	<g id="Thư mục 1 copy">
		<path id="Hình dạng 8 copy" class="s5" d="m107.2 437.3c0 0 7-9.6 4.8-58.2-3.1-12.4-14.4-24-14.4-24l2.4-3.6c0 0 9.9 11 12 16.2 0 0 0-19.2 0-19.2l3.6-0.6c0 0 0.1 25.2 0 25.2 3.7-11.5 16.2-19.2 16.2-19.2l2.4 4.2c0 0-13.9 8.7-15.6 20.4-0.7 54.6 4.8 57 4.8 57zm24.3-86.4c0 0-10.9 12-24.3 0-18.7 11.1-53.4-26.4-35.4-26.4-5.8-1.5-1.6-14.7 4.2-12.6-3.3-7.4 5.4-21.6 13.7-22.7 0 0 5.5-6.7 16.9-0.7 10.2-6.2 21.2 3.3 19.8 9.6 18 0 20.1 8.1 22.2 12 12.5 3 6.9 13.6 6.9 13.6zm30.9-9.6c7 4.4-0.6 18.3-6 15-10.8 21.6-27.6 0.8-25.2-2.4-8.6-0.6-9.4-8-4.8-9.6-15.6-4.4-2.5-24.3 13.8-14.4 22.7-17.2 32 2.5 22.2 11.4zm-98.4 1.2c-8.7-7.5 9.5-31.1 28.8-15.6 41.8-15.6 33 33.7 9 27.6-3.2 4.6-4.7 9.5-16.2 7.2-5.4 13.9-36.6 1.7-21.6-19.2z"/>
		<path id="Hình dạng 8" class="s6" d="m106.4 437.3c0 0 7-9.6 4.8-58.2-3.1-12.4-14.4-24-14.4-24l2.4-3.6c0 0 9.9 11 12 16.2 0 0 0-19.2 0-19.2l3.6-0.6c0 0 0.1 25.2 0 25.2 3.7-11.5 16.2-19.2 16.2-19.2l2.4 4.2c0 0-13.9 8.7-15.6 20.4-0.7 54.6 4.8 57 4.8 57z"/>
		<path id="Hình dạng 11" class="s7" d="m130.7 350.9c0 0-10.9 12-24.3 0-18.7 11.1-53.4-26.4-35.4-26.4-5.8-1.5-1.6-14.7 4.2-12.6-3.3-7.4 5.4-21.6 13.7-22.7 0 0 5.5-6.7 16.9-0.7 10.2-6.2 21.2 3.3 19.8 9.6 18 0 20.1 8.1 22.2 12 12.5 3 6.9 13.6 6.9 13.6z"/>
		<path id="Hình dạng 10" class="s8" d="m161.6 341.3c7 4.3-0.6 18.2-6 15-10.8 21.6-27.6 0.7-25.2-2.4-8.6-0.6-9.4-8-4.8-9.6-15.6-4.4-2.5-24.3 13.8-14.4 22.7-17.2 32 2.5 22.2 11.4z"/>
		<path id="Hình dạng 9" class="s9" d="m63.2 342.5c-8.7-7.5 9.5-31.1 28.8-15.6 41.8-15.6 33 33.7 9 27.6-3.2 4.6-4.7 9.5-16.2 7.2-5.4 13.9-36.6 1.7-21.6-19.2z"/>
	</g>
	<path id="Hình dạng 2" class="s10" d="m0 500v-99c0 0 45.3-1.5 114.3 28.2 43.4 18.6 119.4 21 119.7 20.8 30 0 42.7-5.8 96-8 32.2-1 33.7-1.7 62 1 0.2 0.2 0 57 0 57z"/>
	<g id="Thư mục 1">
		<path id="Hình dạng 8 copy" class="s5" d="m347 457c0 0 11.6-16 8-97-5.2-20.6-24-40-24-40l4-6c0 0 16.4 18.4 20 27 0 0 0-32 0-32l6-1c0 0 0.1 42 0 42 6.2-19.2 27-32 27-32l4 7c0 0-23.2 14.5-26 34-1.2 91 8 95 8 95zm40.5-144c0 0-18.3 20-40.5 0-31.3 18.5-89-44-59-44-9.8-2.5-2.8-24.5 7-21-5.5-12.3 9-36 22.8-37.8-0.1 0 9.2-11.2 28.2-1.2 17-10.3 35.3 5.5 33 16 30 0 33.5 13.5 37 20 20.8 5 11.5 22.7 11.5 22.7zm51.5-16c11.6 7.2-1 30.4-10 25-18 36-46 1.2-42-4-14.3-1-15.7-13.3-8-16-26-7.3-4.2-40.5 23-24 37.8-28.6 53.3 4.2 37 19zm-164 2c-14.5-12.5 15.8-51.8 48-26 69.7-26 55 56.2 15 46-5.3 7.7-7.8 15.9-27 12-9 23.2-61 2.9-36-32z"/>
		<path id="Hình dạng 8" class="s6" d="m349 457c0 0 11.6-16 8-97-5.2-20.6-24-40-24-40l4-6c0 0 16.4 18.4 20 27 0 0 0-32 0-32l6-1c0 0 0.1 42 0 42 6.2-19.2 27-32 27-32l4 7c0 0-23.2 14.5-26 34-1.2 91 8 95 8 95z"/>
		<path id="Hình dạng 11" class="s7" d="m389.5 313c0 0-18.3 20-40.5 0-31.3 18.5-89-44-59-44-9.8-2.5-2.8-24.5 7-21-5.5-12.3 9-36 22.8-37.8-0.1 0 9.2-11.2 28.2-1.2 17-10.3 35.3 5.5 33 16 30 0 33.5 13.5 37 20 20.8 5 11.5 22.7 11.5 22.7z"/>
		<path id="Hình dạng 10" class="s8" d="m441 297c11.6 7.2-1 30.4-10 25-18 36-46 1.2-42-4-14.3-1-15.7-13.4-8-16-26-7.3-4.2-40.5 23-24 37.8-28.7 53.3 4.2 37 19z"/>
		<path id="Hình dạng 9" class="s9" d="m277 299c-14.5-12.5 15.8-51.8 48-26 69.7-26 55 56.2 15 46-5.3 7.7-7.8 15.8-27 12-9 23.2-61 2.8-36-32z"/>
	</g>
	<path id="Hình dạng 1" class="s11" d="m110 500c0 0 62-39.4 166-41 0-0.2 72.6 4.6 130-28 39.4-28.8 94-37 94-37v106z"/>
</svg>