<svg version="1.2" xmlns="http://www.w3.org/2000/svg" viewBox="0 0 301 128" width="301" height="128">
	<title>176c8f93859b54c50d8a</title>
	<style>
		.s0 { fill: #c2272d } 
		.s1 { fill: #020107 } 
		.s2 { fill: #b3b3b3 } 
		.s3 { fill: #686868 } 
		.s4 { fill: #f38023 } 
	</style>
	<g id="Thư mục 1">
		<path id="Hình dạng 1" class="s0" d="m194.4 51.3l100.5 39.5c0 0 5.6 2.2 3.4 7.8l-9.5 24.2c-2.2 5.6-7.8 3.3-7.8 3.3l-100.5-39.4z"/>
		<path id="Hình dạng 2 copy" class="s1" d="m189.7 49.5l4.7 1.8-13.9 35.4-4.7-1.9z"/>
		<path id="Hình dạng 2" class="s2" d="m160.9 79c0 0-2.8-1.1-1.7-3.9l6.6-16.7c0 0 1.9-4.6 5.6-3.2l14.6 5.6-9.5 24.2z"/>
		<path id="Hình dạng 3" class="s3" d="m176 57l4.8-12.1c1.1-2.7 5.6-1 4.5 1.7l-1 2.9 5.2 2-3.7 9.3zm0.5 9.8l2.2-5.5 1.8 0.7-2.2 5.6z"/>
	</g>
	<path id="Hình dạng 4" class="s4" d="m143.3 39.3c5 19.8 13 15.2 15.4 24 2.1 8.7-5.8 9.7-5.8 9.7 0 0-9.6 2.6-11.7-5.3-2.4-10.2 2.1-28.4 2.1-28.4z"/>
</svg>